Coordinates
version=1
nRows=11
nColumns=32
inDegrees=yes

Units are S.I. units (second, meters, Newtons, ...)
If the header above contains a line with 'inDegrees', this indicates whether rotational values are in degrees (yes) or radians (no).

endheader
time	pelvis_tilt	pelvis_list	pelvis_rotation	pelvis_tx	pelvis_ty	pelvis_tz	hip_flexion_r	hip_adduction_r	hip_rotation_r	knee_angle_r	ankle_angle_r	subtalar_angle_r	mtp_angle_r	hip_flexion_l	hip_adduction_l	hip_rotation_l	knee_angle_l	ankle_angle_l	subtalar_angle_l	mtp_angle_l	lumbar_extension	lumbar_bending	lumbar_rotation	arm_flex_r	arm_add_r	arm_rot_r	elbow_flex_r	arm_flex_l	arm_add_l	arm_rot_l	elbow_flex_l
      6.55000000	      2.98386643	      2.54061949	     88.76639272	      0.03470074	      0.99226977	      0.17589015	     -5.04589977	      9.10919898	     -0.69707856	    -11.07275518	      8.74961495	     -8.61263711	      0.00000000	     24.81369182	     -5.82981139	    -11.07067091	    -16.37855033	      3.42216097	      1.16912344	      0.00000000	    -11.89854501	      2.90489202	      6.57046801	      0.00000000	      0.00000000	      0.00000000	      0.00000000	      0.00000000	      0.00000000	      0.00000000	      0.00000000
      6.56000000	      3.04670004	      2.87550941	     88.50224504	      0.03459265	      0.99169758	      0.16895254	     -5.77933593	      9.12262545	     -0.33762045	    -11.25866686	      9.63134949	     -8.40490374	      0.00000000	     24.59420071	     -5.89260167	    -10.87036722	    -16.88663200	      3.57628487	      1.05669346	      0.00000000	    -12.20077574	      2.83905067	      6.76734873	      0.00000000	      0.00000000	      0.00000000	      0.00000000	      0.00000000	      0.00000000	      0.00000000	      0.00000000
      6.57000000	      3.02013074	      2.97641532	     88.32850372	      0.03414299	      0.99083760	      0.16164274	     -6.20106405	      9.02617489	     -0.22164734	    -11.57551227	      9.85784195	     -8.32007509	      0.00000000	     24.51918195	     -5.79991101	    -10.65398441	    -17.33448222	      3.64055012	      1.01640919	      0.00000000	    -12.18051875	      2.73375830	      6.89909422	      0.00000000	      0.00000000	      0.00000000	      0.00000000	      0.00000000	      0.00000000	      0.00000000	      0.00000000
      6.58000000	      3.07159242	      2.93936504	     88.17043253	      0.03362054	      0.98978752	      0.15387823	     -6.52942630	      9.01236482	     -0.22041850	    -11.82543399	      9.90626734	     -8.32989296	      0.00000000	     24.39790394	     -5.77278525	    -10.57344419	    -17.53311050	      3.62839895	      1.01271630	      0.00000000	    -11.91167536	      2.73726097	      6.89386307	      0.00000000	      0.00000000	      0.00000000	      0.00000000	      0.00000000	      0.00000000	      0.00000000	      0.00000000
      6.59000000	      3.11213415	      3.20283176	     87.84832480	      0.03323402	      0.98885821	      0.14684512	     -6.99263917	      8.97150113	      0.11758704	    -12.39729048	     10.96804285	     -8.27598288	      0.00000000	     24.08746750	     -5.75292041	    -10.15536883	    -18.14128538	      4.04755735	      0.63793567	      0.00000000	    -12.15706013	      2.67704075	      7.12660546	      0.00000000	      0.00000000	      0.00000000	      0.00000000	      0.00000000	      0.00000000	      0.00000000	      0.00000000
      6.60000000	      3.07315809	      3.27117738	     87.66042472	      0.03267986	      0.98778825	      0.13931544	     -7.29665045	      8.85311798	      0.22157343	    -12.89210741	     11.24428222	     -8.18135249	      0.00000000	     23.83558334	     -5.60992002	     -9.92516499	    -18.55703035	      4.11675077	      0.51853229	      0.00000000	    -12.09658083	      2.54719896	      7.23181140	      0.00000000	      0.00000000	      0.00000000	      0.00000000	      0.00000000	      0.00000000	      0.00000000	      0.00000000
      6.61000000	      3.06517399	      3.35229941	     87.43147915	      0.03210903	      0.98677142	      0.13177980	     -7.57527838	      8.76181819	      0.30707940	    -13.46657109	     11.72524698	     -8.17529074	      0.00000000	     23.46092851	     -5.48459132	     -9.64514098	    -18.85167554	      4.11610093	      0.36865508	      0.00000000	    -12.05211727	      2.46122947	      7.33046674	      0.00000000	      0.00000000	      0.00000000	      0.00000000	      0.00000000	      0.00000000	      0.00000000	      0.00000000
      6.62000000	      2.81086307	      3.61451543	     87.11396899	      0.03151252	      0.98629599	      0.12396152	     -8.10662137	      8.34956301	      0.33316706	    -13.92788756	     12.53773428	     -7.65271470	      0.00000000	     22.62361861	     -5.06295756	     -9.51888037	    -18.75440228	      3.13314696	     -0.73727204	      0.00000000	    -12.17526350	      2.06891887	      7.47999993	      0.00000000	      0.00000000	      0.00000000	      0.00000000	      0.00000000	      0.00000000	      0.00000000	      0.00000000
      6.63000000	      2.67553536	      3.74381016	     87.00573702	      0.03072255	      0.98561044	      0.11639057	     -8.41180146	      8.12163688	      0.26098935	    -14.51007986	     12.85080188	     -7.55091829	      0.00000000	     22.06944423	     -4.72820503	     -9.13795111	    -18.77121965	      1.57709901	     -1.96791180	      0.00000000	    -12.19292881	      1.82106999	      7.43869883	      0.00000000	      0.00000000	      0.00000000	      0.00000000	      0.00000000	      0.00000000	      0.00000000	      0.00000000
      6.64000000	      2.71900885	      3.68162084	     86.97637960	      0.03005552	      0.98477484	      0.10846912	     -8.65822833	      8.12985650	      0.26830201	    -14.84476596	     12.86230915	     -7.56873025	      0.00000000	     21.85675780	     -4.69526422	     -9.07950750	    -18.96049121	      1.49163652	     -1.98921556	      0.00000000	    -11.92260909	      1.80485940	      7.42394034	      0.00000000	      0.00000000	      0.00000000	      0.00000000	      0.00000000	      0.00000000	      0.00000000	      0.00000000
      6.65000000	      2.07247122	      3.84136623	     86.86230874	      0.02884596	      0.98483176	      0.10167427	     -8.60289271	      7.30945557	      0.18910935	    -16.06602798	     13.39041812	     -7.64923415	      0.00000000	     21.36826307	     -3.77833420	     -8.30053090	    -18.82036772	     -0.67057154	     -4.74466973	      0.00000000	    -12.11251019	      0.98487209	      7.37008833	      0.00000000	      0.00000000	      0.00000000	      0.00000000	      0.00000000	      0.00000000	      0.00000000	      0.00000000
